<?xml version="1.0" encoding="UTF-8"?>
<svg id="_Слой_2" data-name="Слой 2" xmlns="http://www.w3.org/2000/svg" viewBox="0 0 1143.83 587.67">
  <defs>
    <style>
      .cls-1 {
        opacity: .24;
      }

      .cls-2 {
        fill: #263547;
        stroke-width: 0px;
      }
    </style>
  </defs>
  <g id="_Слой_2-2" data-name="Слой 2">
    <g class="cls-1">
      <g>
        <path class="cls-2" d="m.88,43.46l217.71,87.36c4.62,1.85,8.3,5.49,10.21,10.09l35.14,84.56c1.47,3.54,4.02,6.52,7.29,8.51l34.56,21.12c3.87,2.36,7.27,5.42,10.02,9.02l183.94,240.07c.84,1.1,2.55.07,1.97-1.19l-135.7-295.64c-.56-1.22-2.27-1.27-2.9-.08l-18.61,35.03c-.55,1.04-2.05,1.02-2.57-.03l-22.03-44.06c-2.08-4.16-5.57-7.43-9.85-9.24l-19.47-8.24c-4.33-1.83-7.84-5.19-9.86-9.43l-55.61-116.89c-1.91-4.01-5.9-6.62-10.34-6.77L1.44,40.78c-1.56-.05-2.01,2.11-.56,2.69Z"/>
        <path class="cls-2" d="m257.97,43.47l45.63,96.42c2.74,5.78,7.51,10.36,13.4,12.85l65.69,27.79c8.3,3.51,15.53,9.16,20.94,16.38l91.36,121.81c1.14,1.52,3.53.25,2.9-1.55l-40.19-115.63c-2.72-7.82-2.01-16.42,1.96-23.69l2.77-5.08c3.47-6.36,1.45-14.32-4.63-18.26l-36.11-23.4c-8.46-5.48-18.06-8.97-28.07-10.21l-32.77-4.05c-13.14-1.62-25.48-7.21-35.37-16.02l-65.81-58.64c-.89-.79-2.21.21-1.71,1.28Z"/>
        <path class="cls-2" d="m280.77,14.64l44.69,39.47c2.21,1.96,5.07,3.04,8.02,3.04h9.77c4.27,0,8.35,1.75,11.29,4.84l24.46,25.69c2.86,3,7.05,4.34,11.12,3.55l13.17-2.55c4.06-.79,8.25.24,11.49,2.8l45.19,35.75c1.75,1.39,4.23-.39,3.48-2.49l-18.55-51.95c-2.71-7.59-6.34-14.82-10.81-21.52l-8.72-13.08c-3.05-4.57-7.74-7.8-13.1-9l-25.31-5.69-36.76-20.9c-3.98-2.26-8.63-3.07-13.14-2.29l-54.93,9.53c-2.29.4-3.11,3.27-1.36,4.81Z"/>
        <path class="cls-2" d="m714.14,282.96l-139.86,303.18c-.94,2.03-3.82,2.03-4.76,0l-139.86-303.18c-.64-1.38,1.34-2.43,2.12-1.13l137.87,226.88c1.02,1.68,3.46,1.68,4.48,0l137.87-226.88c.79-1.3,2.76-.25,2.12,1.13Z"/>
        <path class="cls-2" d="m1142.96,43.46l-217.71,87.36c-4.62,1.85-8.3,5.49-10.21,10.09l-35.14,84.56c-1.47,3.54-4.02,6.52-7.29,8.51l-34.56,21.12c-3.87,2.36-7.27,5.42-10.02,9.02l-183.94,240.07c-.84,1.1-2.55.07-1.97-1.19l135.7-295.64c.56-1.22,2.27-1.27,2.9-.08l18.61,35.03c.55,1.04,2.05,1.02,2.57-.03l22.03-44.06c2.08-4.16,5.57-7.43,9.85-9.24l19.47-8.24c4.33-1.83,7.84-5.19,9.86-9.43l55.61-116.89c1.91-4.01,5.9-6.62,10.34-6.77l213.35-6.88c1.56-.05,2.01,2.11.56,2.69Z"/>
        <path class="cls-2" d="m885.86,43.47l-45.63,96.42c-2.74,5.78-7.51,10.36-13.4,12.85l-65.69,27.79c-8.3,3.51-15.53,9.16-20.94,16.38l-91.36,121.81c-1.14,1.52-3.53.25-2.9-1.55l40.19-115.63c2.72-7.82,2.01-16.42-1.96-23.69l-2.77-5.08c-3.47-6.36-1.45-14.32,4.63-18.26l36.11-23.4c8.46-5.48,18.06-8.97,28.07-10.21l32.77-4.05c13.14-1.62,25.48-7.21,35.37-16.02l65.81-58.64c.89-.79,2.21.21,1.71,1.28Z"/>
        <path class="cls-2" d="m863.07,14.64l-44.69,39.47c-2.21,1.96-5.07,3.04-8.02,3.04h-9.77c-4.27,0-8.35,1.75-11.29,4.84l-24.46,25.69c-2.86,3-7.05,4.34-11.12,3.55l-13.17-2.55c-4.06-.79-8.25.24-11.49,2.8l-45.19,35.75c-1.75,1.39-4.23-.39-3.48-2.49l18.55-51.95c2.71-7.59,6.34-14.82,10.81-21.52l8.72-13.08c3.05-4.57,7.74-7.8,13.1-9l25.31-5.69,36.76-20.9c3.98-2.26,8.63-3.07,13.14-2.29l54.93,9.53c2.29.4,3.11,3.27,1.36,4.81Z"/>
      </g>
    </g>
  </g>
</svg>