<?xml version="1.0" encoding="UTF-8"?>
<svg id="_Слой_2" data-name="Слой 2" xmlns="http://www.w3.org/2000/svg" viewBox="0 0 118.55 60.91">
  <defs>
  </defs>
  <g id="_Слой_5" data-name="Слой 5">
    <g>
      <path fill="#fff" d="m.09,4.5l22.56,9.05c.48.19.86.57,1.06,1.05l3.64,8.76c.15.37.42.68.76.88l3.58,2.19c.4.24.75.56,1.04.93l19.06,24.88c.09.11.26,0,.2-.12l-14.06-30.64c-.06-.13-.24-.13-.3,0l-1.93,3.63c-.06.11-.21.11-.27,0l-2.28-4.57c-.22-.43-.58-.77-1.02-.96l-2.02-.85c-.45-.19-.81-.54-1.02-.98l-5.76-12.11c-.2-.42-.61-.69-1.07-.7L.15,4.23c-.16,0-.21.22-.06.28Z"/>
      <path fill="#fff" d="m26.74,4.51l4.73,9.99c.28.6.78,1.07,1.39,1.33l6.81,2.88c.86.36,1.61.95,2.17,1.7l9.47,12.62c.12.16.37.03.3-.16l-4.17-11.98c-.28-.81-.21-1.7.2-2.46l.29-.53c.36-.66.15-1.48-.48-1.89l-3.74-2.42c-.88-.57-1.87-.93-2.91-1.06l-3.4-.42c-1.36-.17-2.64-.75-3.67-1.66l-6.82-6.08c-.09-.08-.23.02-.18.13Z"/>
      <path fill="#fff" d="m29.1,1.52l4.63,4.09c.23.2.53.31.83.31h1.01c.44,0,.87.18,1.17.5l2.54,2.66c.3.31.73.45,1.15.37l1.36-.26c.42-.08.86.02,1.19.29l4.68,3.71c.18.14.44-.04.36-.26l-1.92-5.38c-.28-.79-.66-1.54-1.12-2.23l-.9-1.36c-.32-.47-.8-.81-1.36-.93l-2.62-.59-3.81-2.17c-.41-.23-.89-.32-1.36-.24l-5.69.99c-.24.04-.32.34-.14.5Z"/>
      <path fill="#fff" d="m74.02,29.33l-14.5,31.42c-.1.21-.4.21-.49,0l-14.5-31.42c-.07-.14.14-.25.22-.12l14.29,23.51c.11.17.36.17.46,0l14.29-23.51c.08-.13.29-.03.22.12Z"/>
      <path fill="#fff" d="m118.46,4.5l-22.56,9.05c-.48.19-.86.57-1.06,1.05l-3.64,8.76c-.15.37-.42.68-.76.88l-3.58,2.19c-.4.24-.75.56-1.04.93l-19.06,24.88c-.09.11-.26,0-.2-.12l14.06-30.64c.06-.13.24-.13.3,0l1.93,3.63c.06.11.21.11.27,0l2.28-4.57c.22-.43.58-.77,1.02-.96l2.02-.85c.45-.19.81-.54,1.02-.98l5.76-12.11c.2-.42.61-.69,1.07-.7l22.11-.71c.16,0,.21.22.06.28Z"/>
      <path fill="#fff" d="m91.81,4.51l-4.73,9.99c-.28.6-.78,1.07-1.39,1.33l-6.81,2.88c-.86.36-1.61.95-2.17,1.7l-9.47,12.62c-.12.16-.37.03-.3-.16l4.17-11.98c.28-.81.21-1.7-.2-2.46l-.29-.53c-.36-.66-.15-1.48.48-1.89l3.74-2.42c.88-.57,1.87-.93,2.91-1.06l3.4-.42c1.36-.17,2.64-.75,3.67-1.66l6.82-6.08c.09-.08.23.02.18.13Z"/>
      <path fill="#fff" d="m89.45,1.52l-4.63,4.09c-.23.2-.53.31-.83.31h-1.01c-.44,0-.87.18-1.17.5l-2.54,2.66c-.3.31-.73.45-1.15.37l-1.36-.26c-.42-.08-.86.02-1.19.29l-4.68,3.71c-.18.14-.44-.04-.36-.26l1.92-5.38c.28-.79.66-1.54,1.12-2.23l.9-1.36c.32-.47.8-.81,1.36-.93l2.62-.59,3.81-2.17c.41-.23.89-.32,1.36-.24l5.69.99c.24.04.32.34.14.5Z"/>
    </g>
  </g>
</svg>