<?xml version="1.0" ?><svg xmlns="http://www.w3.org/2000/svg" xmlns:xlink="http://www.w3.org/1999/xlink" version="1.1" viewBox="0 0 512 512" style="enable-background:new 0 0 512 512;" xml:space="preserve"><g id="_x34_5_Upload_Arrow"><g><linearGradient id="SVGID_1_" gradientUnits="userSpaceOnUse" x1="285.4657" y1="-213.8134" x2="226.0711" y2="890.926"><stop offset="0" style="stop-color:#EAE9FE"/><stop offset="0.4236" style="stop-color:#EEEEFE"/><stop offset="0.8967" style="stop-color:#FBFBFF"/><stop offset="1" style="stop-color:#FFFFFF"/></linearGradient><path style="fill:url(#SVGID_1_);" d="M472.505,264.418c-9.665-7.52-21.338-14-25.833-25.391    c-6.113-15.491,3.658-32.115,9.421-47.74c17.595-47.708-4.987-104.205-45.503-134.932    c-77.292-58.617-228.168-38.07-249.252,42.947c-8.919,34.273,7.06,73.374-9.288,104.789    c-20.628,39.638-75.35,42.311-110.593,59.937c-43.664,21.836-52.4,69.384-21.085,105.584    c11.499,13.293,26.213,22.45,36.759,36.974c15.26,21.015,23.818,44.254,44.235,61.589c28.751,24.41,76.819,30.462,102.271,2.631    c14.332-15.672,18.996-38.763,34.641-53.126c20.594-18.906,53.143-16.363,79.349-6.627c26.206,9.736,50.51,25.457,78.113,29.887    c43.158,6.927,89.432-18.396,106.864-58.48C520.036,342.376,507.002,291.261,472.505,264.418z"/><path style="fill:#5EDB6B;" d="M476.158,361.781v131.635c0,4.229-3.428,7.658-7.658,7.658H43.5c-4.229,0-7.658-3.428-7.658-7.658    V361.781c0-4.229,3.428-7.658,7.658-7.658h69.761c4.229,0,7.658,3.428,7.658,7.658v46.559c0,4.229,3.428,7.658,7.658,7.658    h254.848c4.229,0,7.658-3.428,7.658-7.658v-46.559c0-4.229,3.428-7.658,7.658-7.658H468.5    C472.73,354.124,476.158,357.552,476.158,361.781z"/><path style="fill:#5EDB6B;" d="M175.333,238.129l40.049,6.739l0-226.284c0-4.212,3.446-7.658,7.658-7.658h69.761    c4.212,0,7.658,3.446,7.658,7.658l0,226.361l39.973-6.662c9.572-1.608,16.311,9.113,10.72,17l-84.387,119.537    c-4.365,6.203-13.401,6.203-17.766,0l-84.388-119.613C159.098,247.318,165.761,236.597,175.333,238.129z"/><path style="fill:#332E8E;" d="M468.5,349.222h-69.76c-6.926,0-12.56,5.635-12.56,12.56v46.558c0,1.519-1.237,2.757-2.755,2.757    H128.576c-1.519,0-2.755-1.238-2.755-2.757v-46.558c0-6.925-5.634-12.56-12.56-12.56H43.5c-6.926,0-12.56,5.635-12.56,12.56    v131.635c0,6.925,5.634,12.557,12.56,12.557h425c6.926,0,12.56-5.632,12.56-12.557V361.782    C481.06,354.858,475.426,349.222,468.5,349.222z M471.257,493.417c0,1.519-1.237,2.754-2.757,2.754h-425    c-1.521,0-2.757-1.235-2.757-2.754V361.782c0-1.519,1.237-2.757,2.757-2.757h69.76c1.521,0,2.757,1.238,2.757,2.757v46.558    c0,6.925,5.634,12.56,12.558,12.56h254.849c6.925,0,12.558-5.635,12.558-12.56v-46.558c0-1.519,1.237-2.757,2.757-2.757h69.76    c1.521,0,2.757,1.238,2.757,2.757V493.417z"/><path style="fill:#332E8E;" d="M292.801,6.026h-69.762c-6.925,0-12.558,5.632-12.558,12.557v220.49l-34.334-5.779    c-0.013,0-0.026-0.003-0.04-0.006c-6.387-1.028-12.503,1.749-15.939,7.237c-3.44,5.489-3.276,12.193,0.44,17.506l84.383,119.608    c2.966,4.215,7.786,6.733,12.89,6.733c5.106,0,9.926-2.518,12.889-6.727l84.382-119.531c3.75-5.288,3.938-11.986,0.49-17.481    c-3.458-5.514-9.605-8.281-16.014-7.186l-34.267,5.712l0.002-220.576C305.361,11.658,299.727,6.026,292.801,6.026z     M341.245,243.116c3.694-0.625,5.594,1.934,6.093,2.728c0.495,0.788,1.945,3.6-0.19,6.609l-84.391,119.544    c-2.299,3.268-7.445,3.274-9.753-0.003L168.63,252.399c-2.12-3.035-0.656-5.872-0.155-6.669c0.447-0.715,2.038-2.85,5.018-2.85    c0.332,0,0.68,0.029,1.047,0.086l40.029,6.736c1.42,0.233,2.877-0.163,3.979-1.091c1.101-0.932,1.736-2.301,1.736-3.743V18.583    c0-1.493,1.262-2.754,2.755-2.754h69.762c1.495,0,2.757,1.26,2.757,2.754l-0.002,226.362c0,1.442,0.633,2.808,1.733,3.74    c1.099,0.932,2.554,1.327,3.974,1.095L341.245,243.116z"/></g></g><g id="Layer_1"/></svg>